<?xml version="1.0" encoding="UTF-8"?>
<svg version="1.1" xmlns="http://www.w3.org/2000/svg" width="28" height="32">
<path d="M0 0 C9.24 0 18.48 0 28 0 C28 10.56 28 21.12 28 32 C18.76 32 9.52 32 0 32 C0 21.44 0 10.88 0 0 Z " fill="#C58D72" transform="translate(0,0)"/>
<path d="M0 0 C4.62 0 9.24 0 14 0 C14.33 0.99 14.66 1.98 15 3 C17.46326712 4.6446674 17.46326712 4.6446674 20 6 C21 7 21 7 21.0625 10.0625 C21.041875 11.031875 21.02125 12.00125 21 13 C20.01 13.495 20.01 13.495 19 14 C19 11.69 19 9.38 19 7 C16.03 6.67 13.06 6.34 10 6 C9.67 7.32 9.34 8.64 9 10 C11.64 10.66 14.28 11.32 17 12 C17 12.66 17 13.32 17 14 C16.01 14.495 16.01 14.495 15 15 C15.33 16.32 15.66 17.64 16 19 C12.86650268 20.04449911 12.01031744 19.93423645 9 19 C9 19.66 9 20.32 9 21 C9.66 21.33 10.32 21.66 11 22 C10.34 22 9.68 22 9 22 C9 22.66 9 23.32 9 24 C11.97 23.67 14.94 23.34 18 23 C18 23.66 18 24.32 18 25 C16.68 25.33 15.36 25.66 14 26 C14 26.66 14 27.32 14 28 C13.01 28 12.02 28 11 28 C11 29.32 11 30.64 11 32 C7.37 32 3.74 32 0 32 C0 21.44 0 10.88 0 0 Z " fill="#76583C" transform="translate(0,0)"/>
<path d="M0 0 C4.62 0 9.24 0 14 0 C14.33 0.99 14.66 1.98 15 3 C17.46326712 4.6446674 17.46326712 4.6446674 20 6 C21 7 21 7 21.0625 10.0625 C21.041875 11.031875 21.02125 12.00125 21 13 C20.01 13.495 20.01 13.495 19 14 C19 11.69 19 9.38 19 7 C15.37 7 11.74 7 8 7 C7.34 8.65 6.68 10.3 6 12 C7.32 12 8.64 12 10 12 C9.67 12.99 9.34 13.98 9 15 C2.25 16.125 2.25 16.125 0 15 C0 10.05 0 5.1 0 0 Z " fill="#8F9163" transform="translate(0,0)"/>
<path d="M0 0 C2.97 0.495 2.97 0.495 6 1 C6 6.28 6 11.56 6 17 C2.04 17 -1.92 17 -6 17 C-5.360625 15.63875 -4.72125 14.2775 -4.0625 12.875 C-2.43442609 9.23476432 -1.48525709 5.97910816 -1 2 C-0.67 1.34 -0.34 0.68 0 0 Z " fill="#ADAE69" transform="translate(22,15)"/>
<path d="M0 0 C4.62 0 9.24 0 14 0 C14 5.28 14 10.56 14 16 C11.69 15.34 9.38 14.68 7 14 C6.938125 12.906875 6.87625 11.81375 6.8125 10.6875 C6.39313871 6.89552491 6.39313871 6.89552491 3.625 5.1875 C2.75875 4.795625 1.8925 4.40375 1 4 C0.01 3.34 -0.98 2.68 -2 2 C-1.34 2 -0.68 2 0 2 C0 1.34 0 0.68 0 0 Z " fill="#D8DEDC" transform="translate(14,0)"/>
<path d="M0 0 C0.66 0 1.32 0 2 0 C1.67 1.32 1.34 2.64 1 4 C3.64 4.66 6.28 5.32 9 6 C9 6.66 9 7.32 9 8 C8.01 8.495 8.01 8.495 7 9 C7.33 10.32 7.66 11.64 8 13 C4.86650268 14.04449911 4.01031744 13.93423645 1 13 C1 13.66 1 14.32 1 15 C1.66 15.33 2.32 15.66 3 16 C-1.25061356 17.41687119 -3.71851625 16.19320039 -8 15 C-8 13.02 -8 11.04 -8 9 C-7.04287109 8.92652344 -7.04287109 8.92652344 -6.06640625 8.8515625 C-4.82697266 8.73941406 -4.82697266 8.73941406 -3.5625 8.625 C-2.73878906 8.55539062 -1.91507812 8.48578125 -1.06640625 8.4140625 C-0.38449219 8.27742187 0.29742187 8.14078125 1 8 C1.33 7.34 1.66 6.68 2 6 C0.68 6 -0.64 6 -2 6 C-1.125 1.125 -1.125 1.125 0 0 Z " fill="#B17155" transform="translate(8,6)"/>
<path d="M0 0 C6.75 -0.125 6.75 -0.125 9 1 C9.33333333 3 9.66666667 5 10 7 C10.66 7.33 11.32 7.66 12 8 C12 8.99 12 9.98 12 11 C11.34 11 10.68 11 10 11 C10 10.34 10 9.68 10 9 C8.35 9 6.7 9 5 9 C5.66 8.67 6.32 8.34 7 8 C7 7.34 7 6.68 7 6 C4.03 5.67 1.06 5.34 -2 5 C-1.34 3.35 -0.68 1.7 0 0 Z " fill="#B8866F" transform="translate(10,6)"/>
<path d="M0 0 C2.64 1.32 5.28 2.64 8 4 C8 5.32 8 6.64 8 8 C4.04 8 0.08 8 -4 8 C-2.68 5.36 -1.36 2.72 0 0 Z " fill="#504C4F" transform="translate(20,24)"/>
<path d="M0 0 C0.99 0 1.98 0 3 0 C3.33 0.99 3.66 1.98 4 3 C4.66 3.33 5.32 3.66 6 4 C6 5.98 6 7.96 6 10 C3.69 9.34 1.38 8.68 -1 8 C-1.125 2.25 -1.125 2.25 0 0 Z " fill="#C5CCB3" transform="translate(22,6)"/>
<path d="M0 0 C3.3 0 6.6 0 10 0 C9.21625 0.61875 8.4325 1.2375 7.625 1.875 C5.03162353 3.89858661 5.03162353 3.89858661 3 6 C3 6.99 3 7.98 3 9 C2.67 9.66 2.34 10.32 2 11 C1.34 11 0.68 11 0 11 C0 7.37 0 3.74 0 0 Z " fill="#B1B9A9" transform="translate(0,0)"/>
<path d="M0 0 C1.60332791 -0.08121924 3.20784026 -0.13929134 4.8125 -0.1875 C6.15248047 -0.23970703 6.15248047 -0.23970703 7.51953125 -0.29296875 C10 0 10 0 11.8125 1.3125 C13.58043356 3.82482663 13.19885058 6.0172413 13 9 C12.01 9.495 12.01 9.495 11 10 C11 7.69 11 5.38 11 3 C7.04 3 3.08 3 -1 3 C-0.67 2.01 -0.34 1.02 0 0 Z " fill="#483B34" transform="translate(8,4)"/>
<path d="M0 0 C1.32 0.66 2.64 1.32 4 2 C3.25675659 4.39489543 2.52942646 5.70777616 0.30859375 6.93359375 C-1.44073501 7.67219923 -3.21934149 8.34049685 -5 9 C-4.6875 7.0625 -4.6875 7.0625 -4 5 C-3.01 4.67 -2.02 4.34 -1 4 C-0.26676204 1.98491642 -0.26676204 1.98491642 0 0 Z " fill="#AEB335" transform="translate(5,23)"/>
<path d="M0 0 C0.33 0.66 0.66 1.32 1 2 C0.67 2.99 0.34 3.98 0 5 C1.32 5 2.64 5 4 5 C3.67 5.99 3.34 6.98 3 8 C-0.375 8.625 -0.375 8.625 -4 9 C-4.66 8.34 -5.32 7.68 -6 7 C-4.02 4.69 -2.04 2.38 0 0 Z " fill="#767637" transform="translate(6,7)"/>
<path d="M0 0 C1.98 0 3.96 0 6 0 C6 1.98 6 3.96 6 6 C4.02 6 2.04 6 0 6 C0 4.02 0 2.04 0 0 Z " fill="#A3A15D" transform="translate(0,15)"/>
<path d="M0 0 C2.31 0.33 4.62 0.66 7 1 C7.33 2.32 7.66 3.64 8 5 C4.09567131 5 1.61973402 4.31626692 -2 3 C-1.34 2.67 -0.68 2.34 0 2 C0 1.34 0 0.68 0 0 Z " fill="#D0D8C9" transform="translate(14,0)"/>
<path d="M0 0 C1.98 0 3.96 0 6 0 C6 1.65 6 3.3 6 5 C3.36 5 0.72 5 -2 5 C-1.34 3.35 -0.68 1.7 0 0 Z " fill="#E2AB8F" transform="translate(10,6)"/>
<path d="M0 0 C1.98 0 3.96 0 6 0 C4.52307692 5.66153846 4.52307692 5.66153846 1.875 7.375 C0.946875 7.684375 0.946875 7.684375 0 8 C0 5.36 0 2.72 0 0 Z " fill="#8B8F3B" transform="translate(0,21)"/>
<path d="M0 0 C0 0.66 0 1.32 0 2 C-1.32 2.33 -2.64 2.66 -4 3 C-4 3.66 -4 4.32 -4 5 C-4.99 5 -5.98 5 -7 5 C-7.33 6.32 -7.66 7.64 -8 9 C-8 6.36 -8 3.72 -8 1 C-5.07175348 0.02391783 -3.04386724 -0.08226668 0 0 Z " fill="#B16D47" transform="translate(18,23)"/>
<path d="M0 0 C0.99 0.33 1.98 0.66 3 1 C3 3.97 3 6.94 3 10 C1.35 9.67 -0.3 9.34 -2 9 C-1.34 8.67 -0.68 8.34 0 8 C0 5.36 0 2.72 0 0 Z " fill="#9A9E50" transform="translate(25,18)"/>
<path d="M0 0 C2.97 0.495 2.97 0.495 6 1 C6 2.32 6 3.64 6 5 C4.02 5 2.04 5 0 5 C0 3.35 0 1.7 0 0 Z " fill="#3D3A3C" transform="translate(22,27)"/>
<path d="M0 0 C0.99 0 1.98 0 3 0 C4.125 3.75 4.125 3.75 3 6 C3.66 6.33 4.32 6.66 5 7 C4.01 7.33 3.02 7.66 2 8 C1.34 7.67 0.68 7.34 0 7 C0 4.69 0 2.38 0 0 Z " fill="#B16745" transform="translate(6,15)"/>
<path d="M0 0 C1 3 1 3 0.0625 5.1875 C-0.4634375 6.0846875 -0.4634375 6.0846875 -1 7 C-2.32 7 -3.64 7 -5 7 C-5 5.68 -5 4.36 -5 3 C-4.01 3 -3.02 3 -2 3 C-2 2.34 -2 1.68 -2 1 C-1.34 0.67 -0.68 0.34 0 0 Z " fill="#C68664" transform="translate(16,25)"/>
<path d="M0 0 C2.97 0.495 2.97 0.495 6 1 C6 1.33 6 1.66 6 2 C4.35 2 2.7 2 1 2 C1.33 4.31 1.66 6.62 2 9 C1.34 9 0.68 9 0 9 C-1.125 2.25 -1.125 2.25 0 0 Z " fill="#BBB779" transform="translate(22,15)"/>
<path d="M0 0 C0.33 1.32 0.66 2.64 1 4 C-1.64 4.33 -4.28 4.66 -7 5 C-6.625 3.0625 -6.625 3.0625 -6 1 C-4 0 -4 0 0 0 Z " fill="#7E7D4D" transform="translate(14,0)"/>
<path d="M0 0 C1.65 0 3.3 0 5 0 C5.33 1.32 5.66 2.64 6 4 C4.35 4.66 2.7 5.32 1 6 C1.33 4.35 1.66 2.7 2 1 C1.34 0.67 0.68 0.34 0 0 Z " fill="#D6A084" transform="translate(15,15)"/>
<path d="M0 0 C1.32 0 2.64 0 4 0 C4 1.65 4 3.3 4 5 C1.03 4.505 1.03 4.505 -2 4 C-1.34 3.67 -0.68 3.34 0 3 C0 2.01 0 1.02 0 0 Z " fill="#C3C79C" transform="translate(24,11)"/>
<path d="M0 0 C0.33 0.66 0.66 1.32 1 2 C0.67 2.99 0.34 3.98 0 5 C1.32 5 2.64 5 4 5 C3.67 5.99 3.34 6.98 3 8 C2.01 8 1.02 8 0 8 C-0.38063221 5.6739143 -0.71269945 3.33944736 -1 1 C-0.67 0.67 -0.34 0.34 0 0 Z " fill="#755334" transform="translate(6,7)"/>
<path d="M0 0 C2.97 0.495 2.97 0.495 6 1 C6 1.66 6 2.32 6 3 C4.02 3.33 2.04 3.66 0 4 C0 2.68 0 1.36 0 0 Z " fill="#855B45" transform="translate(11,11)"/>
</svg>
